HIERARCHY
ROOT Hips
{
	OFFSET 0.000000 83.214638 0.000000
	CHANNELS 6 Xposition Yposition Zposition Xrotation Yrotation Zrotation
	JOINT Pelvis
	{
		OFFSET 0.000000 0.000000 0.000000
		CHANNELS 3 Xrotation Yrotation Zrotation
		JOINT LeftUpLeg
		{
			OFFSET 8.479700 -4.795502 -0.379100
			CHANNELS 3 Xrotation Yrotation Zrotation
			JOINT LeftLeg
			{
				OFFSET 0.024144 -32.555107 0.112900
				CHANNELS 3 Xrotation Yrotation Zrotation
				JOINT LeftFoot
				{
					OFFSET -0.024144 -32.638630 -3.012600
					CHANNELS 3 Xrotation Yrotation Zrotation
					JOINT LeftToeBase
					{
						OFFSET 0.970200 -13.225400 11.864200
						CHANNELS 3 Xrotation Yrotation Zrotation
						End Site
						{
							OFFSET 0.000000 12.319262 0.000000
						}
					}
					JOINT LFootTongue
					{
						OFFSET 1.142400 -1.059800 6.665200
						CHANNELS 3 Xrotation Yrotation Zrotation
						End Site
						{
							OFFSET 0.000000 12.319262 0.000000
						}
					}
				}
				JOINT LeftPantLeg
				{
					OFFSET 0.918482 -16.533964 -2.284700
					CHANNELS 3 Xrotation Yrotation Zrotation
					End Site
					{
						OFFSET 0.350399 24.744368 0.000000
					}
				}
			}
		}
		JOINT RightUpLeg
		{
			OFFSET -8.479700 -4.795502 -0.379100
			CHANNELS 3 Xrotation Yrotation Zrotation
			JOINT RightLeg
			{
				OFFSET -0.023144 -32.555092 0.112900
				CHANNELS 3 Xrotation Yrotation Zrotation
				JOINT RightFoot
				{
					OFFSET 0.023144 -32.638641 -3.012700
					CHANNELS 3 Xrotation Yrotation Zrotation
					JOINT RightToeBase
					{
						OFFSET -0.970200 -13.225400 11.864200
						CHANNELS 3 Xrotation Yrotation Zrotation
						End Site
						{
							OFFSET 0.000000 12.319244 0.000000
						}
					}
					JOINT RFootTongue
					{
						OFFSET -1.142200 -1.059800 6.665200
						CHANNELS 3 Xrotation Yrotation Zrotation
						End Site
						{
							OFFSET 0.000000 12.319243 0.000000
						}
					}
				}
				JOINT RightPantLeg
				{
					OFFSET -0.919482 -16.533978 -2.284800
					CHANNELS 3 Xrotation Yrotation Zrotation
					End Site
					{
						OFFSET -0.350400 24.744419 0.000000
					}
				}
			}
		}
	}
	JOINT Spine
	{
		OFFSET 0.000000 7.722000 1.166200
		CHANNELS 3 Xrotation Yrotation Zrotation
		JOINT Spine1
		{
			OFFSET 0.000000 12.024101 0.248800
			CHANNELS 3 Xrotation Yrotation Zrotation
			JOINT Spine2
			{
				OFFSET 0.000000 11.502998 -0.491200
				CHANNELS 3 Xrotation Yrotation Zrotation
				JOINT Neck
				{
					OFFSET 0.000000 18.430702 -3.123100
					CHANNELS 3 Xrotation Yrotation Zrotation
					JOINT Head
					{
						OFFSET 0.000000 9.051102 1.034000
						CHANNELS 3 Xrotation Yrotation Zrotation
						JOINT HairB
						{
							OFFSET 0.208400 24.786102 24.822300
							CHANNELS 3 Xrotation Yrotation Zrotation
							End Site
							{
								OFFSET 0.000000 32.263779 0.000000
							}
						}
						JOINT HairA
						{
							OFFSET -7.081100 24.428299 23.196600
							CHANNELS 3 Xrotation Yrotation Zrotation
							End Site
							{
								OFFSET 0.000000 32.263779 0.000000
							}
						}
						JOINT Hat
						{
							OFFSET 16.728800 15.048294 -15.439601
							CHANNELS 3 Xrotation Yrotation Zrotation
							End Site
							{
								OFFSET 0.000000 32.263779 0.000000
							}
						}
					}
				}
				JOINT LeftShoulder
				{
					OFFSET 6.197800 13.665199 -4.064700
					CHANNELS 3 Xrotation Yrotation Zrotation
					JOINT LeftArm
					{
						OFFSET 7.778100 -0.187103 -1.709300
						CHANNELS 3 Xrotation Yrotation Zrotation
						JOINT LeftForeArm
						{
							OFFSET 22.049376 0.000000 0.000000
							CHANNELS 3 Xrotation Yrotation Zrotation
							JOINT LeftHand
							{
								OFFSET 23.009392 0.000000 0.000000
								CHANNELS 3 Xrotation Yrotation Zrotation
								JOINT LeftHandThumb1
								{
									OFFSET 3.507191 -2.063065 3.133727
									CHANNELS 3 Xrotation Yrotation Zrotation
									JOINT LeftHandThumb2
									{
										OFFSET 3.101337 -1.790558 1.790558
										CHANNELS 3 Xrotation Yrotation Zrotation
										JOINT LeftHandThumb3
										{
											OFFSET 3.058640 -1.765907 1.765906
											CHANNELS 3 Xrotation Yrotation Zrotation
											End Site
											{
												OFFSET -0.415260 3.926476 -0.049563
											}
										}
									}
								}
								JOINT LeftHandIndex1
								{
									OFFSET 11.334419 -0.901459 3.706815
									CHANNELS 3 Xrotation Yrotation Zrotation
									JOINT LeftHandIndex2
									{
										OFFSET 3.283112 0.000000 0.000000
										CHANNELS 3 Xrotation Yrotation Zrotation
										JOINT LeftHandIndex3
										{
											OFFSET 3.323853 0.000000 0.000000
											CHANNELS 3 Xrotation Yrotation Zrotation
											End Site
											{
												OFFSET -1.135597 3.097809 0.402452
											}
										}
									}
								}
								JOINT LeftHandMiddle1
								{
									OFFSET 11.335861 0.000000 0.000000
									CHANNELS 3 Xrotation Yrotation Zrotation
									JOINT LeftHandMiddle2
									{
										OFFSET 3.410492 0.000000 0.000000
										CHANNELS 3 Xrotation Yrotation Zrotation
										JOINT LeftHandMiddle3
										{
											OFFSET 3.312172 0.000000 0.000000
											CHANNELS 3 Xrotation Yrotation Zrotation
											End Site
											{
												OFFSET -1.150200 3.080154 0.400270
											}
										}
									}
								}
								JOINT LeftHandRing1
								{
									OFFSET 11.514786 -0.013176 -3.003090
									CHANNELS 3 Xrotation Yrotation Zrotation
									JOINT LeftHandRing2
									{
										OFFSET 3.053307 0.000000 0.000000
										CHANNELS 3 Xrotation Yrotation Zrotation
										JOINT LeftHandRing3
										{
											OFFSET 3.295807 0.000000 0.000000
											CHANNELS 3 Xrotation Yrotation Zrotation
											End Site
											{
												OFFSET -1.281006 3.013344 0.375733
											}
										}
									}
								}
								JOINT LeftHandPinky1
								{
									OFFSET 10.518692 -0.960396 -5.730441
									CHANNELS 3 Xrotation Yrotation Zrotation
									JOINT LeftHandPinky2
									{
										OFFSET 2.861649 0.000000 0.000000
										CHANNELS 3 Xrotation Yrotation Zrotation
										JOINT LeftHandPinky3
										{
											OFFSET 2.863380 0.000000 0.000000
											CHANNELS 3 Xrotation Yrotation Zrotation
											End Site
											{
												OFFSET -0.843597 2.711159 0.369971
											}
										}
									}
								}
							}
							JOINT LSleeve
							{
								OFFSET 6.676277 -0.344902 -1.011730
								CHANNELS 3 Xrotation Yrotation Zrotation
								End Site
								{
									OFFSET 0.000000 14.885353 0.000000
								}
							}
						}
					}
				}
				JOINT RightShoulder
				{
					OFFSET -6.197800 13.665199 -4.064700
					CHANNELS 3 Xrotation Yrotation Zrotation
					JOINT RightArm
					{
						OFFSET -7.778100 -0.187103 -1.709300
						CHANNELS 3 Xrotation Yrotation Zrotation
						JOINT RightForeArm
						{
							OFFSET -22.049376 0.000000 0.000000
							CHANNELS 3 Xrotation Yrotation Zrotation
							JOINT RightHand
							{
								OFFSET -23.009392 0.000000 0.000000
								CHANNELS 3 Xrotation Yrotation Zrotation
								JOINT RightHandThumb1
								{
									OFFSET -3.507191 -2.063065 3.133727
									CHANNELS 3 Xrotation Yrotation Zrotation
									JOINT RightHandThumb2
									{
										OFFSET -3.101337 -1.790558 1.790558
										CHANNELS 3 Xrotation Yrotation Zrotation
										JOINT RightHandThumb3
										{
											OFFSET -3.058640 -1.765907 1.765906
											CHANNELS 3 Xrotation Yrotation Zrotation
											End Site
											{
												OFFSET 0.415260 3.926476 -0.049563
											}
										}
									}
								}
								JOINT RightHandIndex1
								{
									OFFSET -11.334419 -0.901459 3.706815
									CHANNELS 3 Xrotation Yrotation Zrotation
									JOINT RightHandIndex2
									{
										OFFSET -3.283112 0.000000 0.000000
										CHANNELS 3 Xrotation Yrotation Zrotation
										JOINT RightHandIndex3
										{
											OFFSET -3.323853 0.000000 0.000000
											CHANNELS 3 Xrotation Yrotation Zrotation
											End Site
											{
												OFFSET 1.135597 3.097809 0.402452
											}
										}
									}
								}
								JOINT RightHandMiddle1
								{
									OFFSET -11.335861 0.000000 0.000000
									CHANNELS 3 Xrotation Yrotation Zrotation
									JOINT RightHandMiddle2
									{
										OFFSET -3.410492 0.000000 0.000000
										CHANNELS 3 Xrotation Yrotation Zrotation
										JOINT RightHandMiddle3
										{
											OFFSET -3.312172 0.000000 0.000000
											CHANNELS 3 Xrotation Yrotation Zrotation
											End Site
											{
												OFFSET 1.150200 3.080154 0.400270
											}
										}
									}
								}
								JOINT RightHandRing1
								{
									OFFSET -11.514786 -0.013176 -3.003090
									CHANNELS 3 Xrotation Yrotation Zrotation
									JOINT RightHandRing2
									{
										OFFSET -3.053307 0.000000 0.000000
										CHANNELS 3 Xrotation Yrotation Zrotation
										JOINT RightHandRing3
										{
											OFFSET -3.295807 0.000000 0.000000
											CHANNELS 3 Xrotation Yrotation Zrotation
											End Site
											{
												OFFSET 1.281006 3.013344 0.375733
											}
										}
									}
								}
								JOINT RightHandPinky1
								{
									OFFSET -10.518692 -0.960396 -5.730441
									CHANNELS 3 Xrotation Yrotation Zrotation
									JOINT RightHandPinky2
									{
										OFFSET -2.861649 0.000000 0.000000
										CHANNELS 3 Xrotation Yrotation Zrotation
										JOINT RightHandPinky3
										{
											OFFSET -2.863380 0.000000 0.000000
											CHANNELS 3 Xrotation Yrotation Zrotation
											End Site
											{
												OFFSET 0.843597 2.711159 0.369971
											}
										}
									}
								}
							}
							JOINT RSleeve
							{
								OFFSET -6.676277 -0.344902 -1.011730
								CHANNELS 3 Xrotation Yrotation Zrotation
								End Site
								{
									OFFSET 0.000000 14.885353 0.000000
								}
							}
						}
					}
				}
				JOINT Backpack
				{
					OFFSET 0.000000 -2.471497 36.677502
					CHANNELS 3 Xrotation Yrotation Zrotation
					End Site
					{
						OFFSET 0.000000 20.427315 0.000000
					}
				}
				JOINT Hood
				{
					OFFSET 0.000000 18.754097 -10.431000
					CHANNELS 3 Xrotation Yrotation Zrotation
					JOINT Hood1
					{
						OFFSET 0.000000 -5.011002 -7.685901
						CHANNELS 3 Xrotation Yrotation Zrotation
						End Site
						{
							OFFSET 0.000000 9.175140 0.000000
						}
					}
				}
				JOINT LHoodieString
				{
					OFFSET 5.250500 16.397697 3.089900
					CHANNELS 3 Xrotation Yrotation Zrotation
					JOINT LHoodieString1
					{
						OFFSET 0.257700 -6.364304 3.694600
						CHANNELS 3 Xrotation Yrotation Zrotation
						JOINT LHoodieString2
						{
							OFFSET 0.000000 -9.643799 2.679100
							CHANNELS 3 Xrotation Yrotation Zrotation
							End Site
							{
								OFFSET 0.000000 10.009018 0.000000
							}
						}
					}
				}
				JOINT RHoodieString
				{
					OFFSET -5.250500 16.397697 3.089900
					CHANNELS 3 Xrotation Yrotation Zrotation
					JOINT RHoodieString1
					{
						OFFSET -0.257700 -6.364304 3.694600
						CHANNELS 3 Xrotation Yrotation Zrotation
						JOINT RHoodieString2
						{
							OFFSET 0.000000 -9.643799 2.679100
							CHANNELS 3 Xrotation Yrotation Zrotation
							End Site
							{
								OFFSET 0.000000 10.009018 0.000000
							}
						}
					}
				}
			}
			JOINT LBackpack_Strap
			{
				OFFSET 15.223200 -7.719803 -6.610900
				CHANNELS 3 Xrotation Yrotation Zrotation
				End Site
				{
					OFFSET 0.000000 16.040596 0.000000
				}
			}
			JOINT RBackpack_Strap
			{
				OFFSET -15.223000 -7.719803 -6.610900
				CHANNELS 3 Xrotation Yrotation Zrotation
				End Site
				{
					OFFSET 0.000000 16.040596 0.000000
				}
			}
		}
	}
	JOINT BoyFacialAnim_Joint
	{
		OFFSET 1.000000 -82.208099 -1.550900
		CHANNELS 3 Xrotation Yrotation Zrotation
		End Site
		{
			OFFSET 0.000000 30.012791 0.000000
		}
	}
}
MOTION
Frames: 4
Frame Time: 0.016667
5.624810 78.438057 -10.474333 12.689349 9.251869 -0.973866 -0.000000 -0.000001 -0.000000 -14.286395 14.571910 9.838637 38.457544 -1.144578 1.760454 12.923513 -2.797517 -4.535947 0.000003 0.000000 -0.000002 0.000003 0.000000 -0.000001 -0.000001 0.000000 0.000000 -43.557694 -6.077374 -6.743875 43.978683 -2.036293 3.129642 -7.160706 2.080330 -1.111695 -0.000000 -0.000000 -0.000000 -0.000000 -0.000000 -0.000000 -0.000001 -0.000000 0.000000 4.503646 -1.254928 0.369529 1.564959 -2.658699 2.901395 1.574393 -2.667813 2.901703 -3.216329 0.566822 2.708975 -15.707437 0.827950 3.034332 0.000000 0.000000 -0.000000 0.000000 0.000000 -0.000000 0.000000 0.000000 -0.000000 0.124288 -1.541123 2.568618 -46.523851 -11.866264 -46.983895 0.000112 -112.648158 0.000116 -69.625733 -13.116133 -10.477720 10.871952 24.431633 7.994421 2.368891 5.209904 -0.238671 -0.000001 0.000002 -0.000001 9.213473 7.430049 -85.046497 5.044737 5.795444 -82.065372 -0.000000 -0.000003 -0.000004 3.117064 7.733747 -77.810656 3.450913 5.337699 -65.744867 -0.000001 0.000001 -0.000003 2.981559 8.002572 -85.786172 3.085021 5.157983 -61.746071 -0.000000 0.000002 -0.000000 -0.595404 11.406699 -86.448161 6.485230 5.816732 -96.232762 0.000004 -0.000003 0.000001 -0.000000 -0.000001 -0.000002 -1.082561 -10.880359 5.337836 -47.164908 8.617407 48.689570 0.000065 120.211220 -0.000054 -63.342191 15.367430 21.209064 3.592564 -16.454947 -11.549599 2.790453 -6.737064 -0.669433 -0.000001 -0.000004 -0.000002 -0.566145 0.330597 80.510220 3.774812 -4.573009 79.066755 -0.000002 -0.000001 0.000003 -2.294807 -4.464795 67.849617 2.486298 -4.121241 62.190259 -0.000000 0.000002 0.000000 -2.842472 -5.033201 74.536666 2.011853 -3.834319 55.359042 -0.000000 -0.000004 -0.000000 -12.727986 -6.563321 69.830215 4.358539 -4.647626 86.319296 -0.000000 0.000001 0.000000 -0.000000 0.000001 -0.000002 -0.000000 0.000000 -0.000000 -0.000000 0.000000 -0.000000 -0.000000 0.000000 -0.000000 -0.000000 0.000000 -0.000000 -0.000000 0.000000 -0.000000 -0.000002 -0.000000 -0.000000 -0.000000 0.000000 -0.000000 -0.000000 0.000000 -0.000000 -0.000002 -0.000000 -0.000000 0.000001 0.000000 -0.000000 0.000001 0.000000 -0.000000 -0.000000 -0.000001 -0.000000 
5.544894 78.663651 -11.306383 14.008951 9.317739 -1.499299 -0.000000 -0.000000 -0.000000 -21.225769 13.634354 11.475051 46.391007 -3.561684 0.203389 16.175802 -2.729162 -0.702719 -0.000000 -0.000001 -0.000000 -0.000000 -0.000001 0.000000 0.000002 0.000001 -0.000001 -44.012271 -5.946723 -5.730855 45.940204 -2.745396 2.917327 -5.024556 2.191753 -1.784122 0.000000 0.000000 0.000000 0.000000 0.000000 0.000000 0.000001 -0.000000 0.000000 3.834738 -0.953007 1.009714 3.030177 -2.333152 2.316411 3.025691 -2.337049 2.305679 -3.373859 0.744376 1.970036 -20.406070 -0.736912 4.010720 0.000000 0.000000 0.000000 0.000000 0.000000 0.000000 0.000000 0.000000 0.000000 0.226642 -3.126610 5.972563 -55.645527 -11.976972 -43.754509 0.000134 -110.514749 0.000129 -73.310244 -11.632535 -11.828131 10.262781 23.809208 8.306467 2.382968 5.227088 -0.226560 -0.000001 -0.000002 0.000004 8.714117 7.285046 -84.272090 4.989413 5.787505 -81.517133 -0.000002 0.000000 -0.000005 2.612484 7.606775 -77.289369 3.418797 5.323175 -65.399136 -0.000001 -0.000001 -0.000000 2.429901 7.945387 -85.449334 3.065055 5.147228 -61.523865 0.000001 0.000003 -0.000002 -1.236649 10.924678 -86.368145 6.459726 5.819450 -95.981179 -0.000000 0.000002 -0.000002 -0.000001 0.000001 0.000005 -1.787729 -12.486580 1.915336 -57.494128 10.708990 49.479926 -0.000035 115.866482 0.000037 -69.261178 14.057525 21.653296 4.491994 -16.714730 -11.255541 2.794882 -6.734278 -0.676043 0.000001 -0.000002 -0.000001 0.329286 0.086543 80.589436 3.789514 -4.575815 79.251197 -0.000003 -0.000001 0.000003 -1.397293 -4.849279 68.072192 2.481669 -4.118826 62.125843 -0.000002 -0.000001 -0.000000 -2.514222 -5.055796 73.935070 1.988871 -3.818382 55.014609 -0.000001 0.000000 -0.000001 -12.704637 -6.509681 68.593391 4.286013 -4.642396 85.423830 -0.000002 -0.000003 0.000001 -0.000002 -0.000001 -0.000002 -0.000000 0.000000 0.000000 -0.000000 0.000000 0.000000 -0.000000 0.000000 0.000000 -0.000000 0.000000 0.000000 -0.000000 0.000000 0.000000 -0.000002 0.000000 -0.000000 -0.000000 0.000000 0.000000 -0.000000 0.000000 0.000000 -0.000002 0.000000 -0.000000 0.000000 0.000000 0.000000 0.000000 0.000000 0.000000 -0.000000 -0.000000 -0.000000 
5.447896 78.620972 -12.063572 15.000222 9.142645 -1.876965 -0.000000 -0.000000 -0.000000 -29.188472 11.967665 13.532831 58.416067 -4.597630 -0.572336 15.159419 -2.519046 1.786774 0.000001 0.000000 -0.000001 0.000001 0.000000 -0.000001 -0.000001 0.000001 -0.000001 -44.113610 -5.741088 -4.718740 49.131398 -3.753969 2.735324 -5.051768 2.323126 -2.501834 0.000001 -0.000000 0.000000 0.000001 -0.000000 0.000000 0.000001 -0.000000 0.000000 3.410441 -0.721701 1.530445 4.511550 -2.087239 1.761739 4.497384 -2.087711 1.743154 -3.569843 0.950904 1.228297 -24.802200 -2.130056 5.138534 -0.000000 -0.000000 0.000000 -0.000000 -0.000000 0.000000 -0.000000 -0.000000 0.000000 0.283899 -4.204906 10.156134 -64.274792 -8.933950 -40.664194 0.000193 -108.101875 0.000184 -77.039486 -10.296178 -13.415701 9.409438 23.501786 8.676170 2.397581 5.244802 -0.213997 0.000001 -0.000001 -0.000003 8.148827 7.258597 -83.446941 4.952703 5.781935 -81.152695 -0.000000 -0.000001 -0.000005 2.062246 7.456950 -76.699842 3.403258 5.316054 -65.231585 0.000003 0.000003 0.000002 1.826220 7.873415 -85.043355 3.060741 5.144904 -61.475664 0.000001 -0.000001 -0.000002 -1.938291 10.498820 -86.218140 6.450008 5.820450 -95.885454 -0.000001 0.000004 0.000002 -0.000001 0.000000 0.000002 -2.697556 -14.467633 -1.739101 -67.851755 8.072146 51.708842 0.000160 110.708467 -0.000183 -75.665826 13.174100 22.239839 5.568552 -16.817352 -10.745257 2.799352 -6.731132 -0.682863 0.000003 -0.000002 0.000001 1.693632 -0.297653 81.040625 3.833145 -4.583870 79.797421 0.000000 -0.000001 -0.000000 -0.350498 -5.321345 68.847815 2.503175 -4.130093 62.424910 0.000000 -0.000001 -0.000000 -2.233221 -5.138404 73.955103 1.991446 -3.820180 55.053405 -0.000003 -0.000003 -0.000000 -12.916613 -6.321065 68.072145 4.244234 -4.638890 84.907571 -0.000003 0.000001 -0.000001 -0.000003 0.000000 0.000001 -0.000001 0.000000 -0.000000 -0.000001 0.000000 -0.000000 -0.000001 0.000000 -0.000000 -0.000001 0.000000 -0.000000 -0.000001 0.000000 -0.000000 -0.000003 0.000000 0.000000 -0.000001 0.000000 -0.000000 -0.000001 0.000000 -0.000000 -0.000003 0.000000 0.000000 0.000001 0.000000 -0.000000 0.000001 0.000000 -0.000000 -0.000000 -0.000000 -0.000000 
5.321502 78.281677 -12.744965 15.063888 8.754491 -1.940038 -0.000002 -0.000000 -0.000000 -35.853555 10.332481 15.096649 70.479247 -3.270752 -0.543602 12.852143 -2.222915 4.860443 0.000001 -0.000001 -0.000000 0.000001 -0.000001 -0.000000 0.000001 0.000001 0.000001 -42.848454 -5.397798 -3.801472 51.848704 -5.009018 2.384195 -6.954992 2.427490 -2.688850 -0.000000 0.000000 0.000000 -0.000000 0.000000 0.000000 0.000002 0.000000 -0.000000 4.253699 -0.613872 1.701308 5.525779 -2.007906 1.460071 5.509995 -2.001091 1.443115 -3.821969 1.179407 0.529720 -28.309546 -3.166417 6.680835 -0.000000 -0.000000 -0.000001 -0.000000 -0.000000 -0.000001 -0.000000 -0.000000 -0.000001 0.256384 -4.260463 17.532846 -70.525070 -4.093754 -37.545099 0.000052 -104.831362 0.000070 -79.041073 -8.916963 -14.856355 8.253700 23.483874 9.167645 2.412700 5.263045 -0.200967 -0.000000 -0.000001 0.000001 7.606502 7.261717 -82.565751 4.989919 5.787557 -81.522133 -0.000001 -0.000001 -0.000000 1.559653 7.302411 -76.019370 3.452986 5.338609 -65.767120 0.000002 0.000000 0.000000 1.313984 7.794548 -84.538556 3.114011 5.173399 -62.068149 -0.000000 -0.000000 -0.000002 -2.493226 10.178175 -85.864958 6.496557 5.815486 -96.344736 -0.000000 0.000002 0.000002 0.000001 0.000001 0.000002 -4.311110 -16.380943 -8.167937 -75.846655 5.206718 53.753503 0.000258 104.624366 -0.000257 -76.793579 12.678107 22.126010 6.396757 -16.596221 -10.143340 2.803928 -6.727507 -0.689995 0.000001 0.000003 0.000000 3.111530 -0.689727 81.602975 3.886297 -4.593060 80.461862 0.000001 -0.000001 -0.000000 0.498738 -5.717476 70.203785 2.541278 -4.149708 62.952597 -0.000004 0.000004 -0.000006 -2.066110 -5.239518 74.468186 2.014221 -3.835957 55.394344 0.000001 0.000004 0.000001 -13.284497 -6.125465 68.253773 4.233989 -4.637961 84.780679 -0.000003 0.000003 -0.000001 -0.000002 -0.000002 0.000001 -0.000000 0.000000 0.000000 -0.000000 0.000000 0.000000 -0.000000 0.000000 0.000000 -0.000000 0.000000 0.000000 -0.000000 0.000000 0.000000 -0.000002 0.000000 -0.000000 -0.000000 0.000000 0.000000 -0.000000 0.000000 0.000000 -0.000002 0.000000 -0.000000 -0.000000 -0.000000 0.000000 -0.000000 -0.000000 0.000000 -0.000002 -0.000000 -0.000000 
